<?xml version="1.0" encoding="utf-8"?>
<!-- Generator: Adobe Illustrator 19.2.1, SVG Export Plug-In . SVG Version: 6.00 Build 0)  -->
<svg version="1.1" id="Layer_1" xmlns="http://www.w3.org/2000/svg" xmlns:xlink="http://www.w3.org/1999/xlink" x="0px" y="0px"
	 viewBox="0 0 500 500" style="enable-background:new 0 0 500 500;" xml:space="preserve">
<style type="text/css">
	.st0{fill:none;stroke:#000000;stroke-width:2;stroke-miterlimit:10;}
	.st1{fill:none;stroke:#000000;stroke-miterlimit:10;}
	.st2{font-family:'CourierNewPS-BoldMT';}
	.st3{font-size:18px;}
	.st4{fill:none;stroke:#000000;stroke-miterlimit:10;stroke-dasharray:4.037,3.0277;}
</style>
<ellipse class="st0" cx="250.6" cy="247" rx="240.2" ry="200.3"/>
<line class="st1" x1="250.6" y1="247" x2="250.6" y2="46.7"/>
<text transform="matrix(1 0 0 1 46.5499 208.2053)" class="st2 st3">a = 6378206.4 m</text>
<text transform="matrix(1 0 0 1 46.5502 236.702)" class="st2 st3">c = 294.98</text>
<g>
	<g>
		<line class="st1" x1="250.6" y1="247" x2="252.6" y2="247"/>
		<line class="st4" x1="255.6" y1="247" x2="487.2" y2="247"/>
		<line class="st1" x1="488.7" y1="247" x2="490.7" y2="247"/>
	</g>
</g>
<text transform="matrix(1 0 0 1 263.4506 146.8549)" class="st2 st3">a</text>
<text transform="matrix(1 0 0 1 353.583 270.4708)" class="st2 st3">b</text>
<text transform="matrix(1 0 0 1 186.4774 346.8149)"><tspan x="0" y="0" class="st2 st3">c = 1 / f</tspan><tspan x="0.4" y="21.6" class="st2 st3">f = 1 - b / a</tspan></text>
<text transform="matrix(1 0 0 1 192.5833 26.6559)" class="st2 st3">Clarke 1866</text>
</svg>
